<svg width="50" height="50" viewBox="0 0 50 50" fill="none" xmlns="http://www.w3.org/2000/svg">
<rect x="0.5" y="0.5" width="49" height="49" rx="24.5" stroke="#9CA3AF"/>
<path d="M23.2857 26.7143H14.7143C14.2286 26.7143 13.8217 26.5497 13.4937 26.2206C13.1657 25.8914 13.0011 25.4846 13 25C12.9989 24.5154 13.1634 24.1086 13.4937 23.7794C13.824 23.4503 14.2309 23.2857 14.7143 23.2857H23.2857V14.7143C23.2857 14.2286 23.4503 13.8217 23.7794 13.4937C24.1086 13.1657 24.5154 13.0011 25 13C25.4846 12.9989 25.892 13.1634 26.2223 13.4937C26.5526 13.824 26.7166 14.2309 26.7143 14.7143V23.2857H35.2857C35.7714 23.2857 36.1789 23.4503 36.508 23.7794C36.8371 24.1086 37.0011 24.5154 37 25C36.9989 25.4846 36.8343 25.892 36.5063 26.2223C36.1783 26.5526 35.7714 26.7166 35.2857 26.7143H26.7143V35.2857C26.7143 35.7714 26.5497 36.1789 26.2206 36.508C25.8914 36.8371 25.4846 37.0011 25 37C24.5154 36.9989 24.1086 36.8343 23.7794 36.5063C23.4503 36.1783 23.2857 35.7714 23.2857 35.2857V26.7143Z" fill="#727272"/>
</svg>
