<svg width="108" height="108" viewBox="0 0 108 108" fill="none" xmlns="http://www.w3.org/2000/svg">
<g filter="url(#filter0_d_802_11728)">
<rect x="4" y="2" width="100" height="100" rx="50" fill="white" shape-rendering="crispEdges"/>
<rect x="4.5" y="2.5" width="99" height="99" rx="49.5" stroke="#5596FE" shape-rendering="crispEdges"/>
<path d="M72.0827 50.7087H73.3744C75.7898 50.7087 76.9962 50.7087 77.8952 51.2279C78.4842 51.568 78.9733 52.0571 79.3134 52.6462C79.8327 53.5452 79.8327 54.7516 79.8327 57.167C79.8327 59.5824 79.8327 60.7888 79.3134 61.6878C78.9733 62.2769 78.4842 62.766 77.8952 63.1061C76.9962 63.6253 75.7898 63.6253 73.3744 63.6253H72.0827M35.916 50.7087H34.6243C32.2089 50.7087 31.0025 50.7087 30.1035 51.2279C29.5145 51.568 29.0254 52.0571 28.6853 52.6462C28.166 53.5452 28.166 54.7516 28.166 57.167C28.166 59.5824 28.166 60.7888 28.6853 61.6878C29.0254 62.2769 29.5145 62.766 30.1035 63.1061C31.0025 63.6253 32.2089 63.6253 34.6243 63.6253H35.916M51.416 41.667H56.5827C63.8884 41.667 67.5438 41.667 69.8119 43.9377C72.0827 46.2059 72.0827 49.8613 72.0827 57.167C72.0827 64.4727 72.0827 68.1281 69.8119 70.3962C67.5438 72.667 63.8884 72.667 56.5827 72.667H53.9994C53.9994 72.667 52.7077 77.8337 43.666 77.8337C43.666 77.8337 46.2494 75.2271 46.2494 72.6231C42.2374 72.5017 39.8427 72.0547 38.1868 70.3962C35.916 68.1281 35.916 64.4727 35.916 57.167C35.916 49.8613 35.916 46.2059 38.1868 43.9377C40.4549 41.667 44.1103 41.667 51.416 41.667Z" stroke="#5596FE" stroke-width="1.5" stroke-linejoin="round"/>
<path d="M57.875 30.042C57.875 31.0697 57.4667 32.0553 56.74 32.782C56.0133 33.5087 55.0277 33.917 54 33.917C52.9723 33.917 51.9867 33.5087 51.26 32.782C50.5333 32.0553 50.125 31.0697 50.125 30.042C50.125 29.0143 50.5333 28.0287 51.26 27.302C51.9867 26.5753 52.9723 26.167 54 26.167C55.0277 26.167 56.0133 26.5753 56.74 27.302C57.4667 28.0287 57.875 29.0143 57.875 30.042Z" stroke="#5596FE" stroke-width="1.5"/>
<path d="M54 33.917V41.667M46.25 52.0003V54.5837M61.75 52.0003V54.5837" stroke="#5596FE" stroke-width="1.5" stroke-linecap="round" stroke-linejoin="round"/>
<path d="M48.832 63.625C48.832 63.625 50.5551 64.9167 53.9987 64.9167C57.4423 64.9167 59.1654 63.625 59.1654 63.625" stroke="#5596FE" stroke-width="1.5" stroke-linecap="round"/>
</g>
<defs>
<filter id="filter0_d_802_11728" x="0" y="0" width="108" height="108" filterUnits="userSpaceOnUse" color-interpolation-filters="sRGB">
<feFlood flood-opacity="0" result="BackgroundImageFix"/>
<feColorMatrix in="SourceAlpha" type="matrix" values="0 0 0 0 0 0 0 0 0 0 0 0 0 0 0 0 0 0 127 0" result="hardAlpha"/>
<feOffset dy="2"/>
<feGaussianBlur stdDeviation="2"/>
<feComposite in2="hardAlpha" operator="out"/>
<feColorMatrix type="matrix" values="0 0 0 0 0 0 0 0 0 0 0 0 0 0 0 0 0 0 0.25 0"/>
<feBlend mode="normal" in2="BackgroundImageFix" result="effect1_dropShadow_802_11728"/>
<feBlend mode="normal" in="SourceGraphic" in2="effect1_dropShadow_802_11728" result="shape"/>
</filter>
</defs>
</svg>
