<svg width="36" height="36" viewBox="0 0 36 36" fill="none" xmlns="http://www.w3.org/2000/svg">
<rect width="36" height="36" rx="18" fill="#F3F4F6"/>
<path d="M16.1297 15.0003V21.7432C16.1375 22.2363 16.3388 22.7066 16.6903 23.0525C17.0417 23.3984 17.5151 23.5923 18.0082 23.5923C18.5013 23.5923 18.9747 23.3984 19.3261 23.0525C19.6776 22.7066 19.8789 22.2363 19.8867 21.7432L19.8928 12.905C19.8979 12.4835 19.8193 12.0653 19.6616 11.6744C19.5039 11.2836 19.2701 10.9279 18.9739 10.6281C18.6777 10.3283 18.3249 10.0902 17.936 9.92777C17.5471 9.7653 17.1298 9.68164 16.7084 9.68164C16.2869 9.68164 15.8696 9.7653 15.4807 9.92777C15.0918 10.0902 14.739 10.3283 14.4428 10.6281C14.1466 10.9279 13.9129 11.2836 13.7551 11.6744C13.5974 12.0653 13.5188 12.4835 13.5239 12.905V21.8028C13.5153 22.3961 13.6248 22.9852 13.8459 23.5359C14.067 24.0865 14.3954 24.5877 14.8119 25.0103C15.2284 25.4329 15.7248 25.7685 16.2722 25.9976C16.8196 26.2266 17.4071 26.3446 18.0005 26.3446C18.5939 26.3446 19.1813 26.2266 19.7287 25.9976C20.2761 25.7685 20.7725 25.4329 21.189 25.0103C21.6056 24.5877 21.9339 24.0865 22.1551 23.5359C22.3762 22.9852 22.4856 22.3961 22.477 21.8028V13.4881" stroke="black" stroke-width="1.5" stroke-miterlimit="10" stroke-linecap="round"/>
</svg>
