<svg width="36" height="36" viewBox="0 0 36 36" fill="none" xmlns="http://www.w3.org/2000/svg">
<rect width="36" height="36" rx="18" fill="#F3F4F6"/>
<path d="M22.617 26.498C23.4558 26.4736 24.2657 26.1861 24.932 25.676C25.5984 25.166 26.0874 24.4603 26.33 23.657C26.44 23.291 26.5 22.902 26.5 22.5V13.5C26.5 12.4391 26.0786 11.4217 25.3284 10.6716C24.5783 9.92143 23.5609 9.5 22.5 9.5H13.5C12.4391 9.5 11.4217 9.92143 10.6716 10.6716C9.92143 11.4217 9.5 12.4391 9.5 13.5V22.57C9.51835 23.6187 9.94787 24.6182 10.696 25.3533C11.4442 26.0884 12.4512 26.5002 13.5 26.5H22.5L22.617 26.498ZM26.33 23.657L26.242 23.553L23.776 20.577C23.5889 20.3513 23.3544 20.1694 23.0892 20.0443C22.824 19.9193 22.5346 19.8541 22.2414 19.8533C21.9482 19.8525 21.6584 19.9162 21.3925 20.0399C21.1267 20.1636 20.8913 20.3442 20.703 20.569L19.391 22.135L19.177 22.396M9.501 22.571L9.678 22.37L12.884 18.543C13.0717 18.319 13.3063 18.1388 13.5711 18.0152C13.836 17.8916 14.1247 17.8275 14.417 17.8275C14.7093 17.8275 14.998 17.8916 15.2629 18.0152C15.5277 18.1388 15.7623 18.319 15.95 18.543L19.177 22.396L22.524 26.392L22.617 26.498" stroke="black" stroke-width="1.5" stroke-linecap="round" stroke-linejoin="round"/>
<path d="M21.0918 16.4092C21.9202 16.4092 22.5918 15.7376 22.5918 14.9092C22.5918 14.0808 21.9202 13.4092 21.0918 13.4092C20.2634 13.4092 19.5918 14.0808 19.5918 14.9092C19.5918 15.7376 20.2634 16.4092 21.0918 16.4092Z" fill="black"/>
</svg>
