<svg width="36" height="36" viewBox="0 0 36 36" fill="none" xmlns="http://www.w3.org/2000/svg">
<rect width="36" height="36" rx="18" fill="#F3F4F6"/>
<path d="M9 21.75V14.25C9 13.7196 9.21071 13.2109 9.58579 12.8358C9.96086 12.4607 10.4696 12.25 11 12.25H19.5C20.0304 12.25 20.5391 12.4607 20.9142 12.8358C21.2893 13.2109 21.5 13.7196 21.5 14.25V21.75C21.5 22.2804 21.2893 22.7891 20.9142 23.1642C20.5391 23.5393 20.0304 23.75 19.5 23.75H11C10.4696 23.75 9.96086 23.5393 9.58579 23.1642C9.21071 22.7891 9 22.2804 9 21.75ZM26.168 12.991L22.168 16.554C22.1153 16.6008 22.0731 16.6582 22.0441 16.7225C22.0152 16.7868 22.0001 16.8565 22 16.927V18.705C22.0001 18.7755 22.0152 18.8452 22.0441 18.9095C22.0731 18.9738 22.1153 19.0312 22.168 19.078L26.168 22.641C26.2401 22.705 26.3291 22.7468 26.4244 22.7614C26.5196 22.776 26.6171 22.7627 26.705 22.7232C26.7929 22.6837 26.8675 22.6196 26.9199 22.5386C26.9722 22.4577 27 22.3634 27 22.267V13.365C27 13.2686 26.9722 13.1743 26.9199 13.0934C26.8675 13.0124 26.7929 12.9483 26.705 12.9088C26.6171 12.8693 26.5196 12.856 26.4244 12.8706C26.3291 12.8852 26.2401 12.927 26.168 12.991Z" stroke="black" stroke-width="1.5" stroke-linecap="round" stroke-linejoin="round"/>
</svg>
